<svg xmlns="http://www.w3.org/2000/svg" xmlns:xlink="http://www.w3.org/1999/xlink" width="1080" zoomAndPan="magnify" viewBox="0 0 810 809.999993" height="1080" preserveAspectRatio="xMidYMid meet" version="1.0"><path fill="#ffffff" d="M 405 81 C 226.355469 81 81 226.355469 81 405 C 81 583.644531 226.355469 729 405 729 C 583.644531 729 729 583.644531 729 405 C 729 226.355469 583.644531 81 405 81 Z M 223.035156 622.101562 C 226.050781 524.230469 306.402344 445.5 405 445.5 C 503.597656 445.5 583.949219 524.230469 586.964844 622.101562 C 537.679688 663.472656 474.234375 688.5 405 688.5 C 335.765625 688.5 272.320312 663.472656 223.035156 622.101562 Z M 303.75 303.75 C 303.75 247.921875 349.171875 202.5 405 202.5 C 460.828125 202.5 506.25 247.921875 506.25 303.75 C 506.25 359.578125 460.828125 405 405 405 C 349.171875 405 303.75 359.578125 303.75 303.75 Z M 623.578125 585.328125 C 608.917969 509.632812 555.820312 447.667969 485.492188 420.269531 C 522.449219 394.671875 546.75 352.003906 546.75 303.75 C 546.75 225.605469 483.144531 162 405 162 C 326.855469 162 263.25 225.605469 263.25 303.75 C 263.25 352.003906 287.550781 394.671875 324.507812 420.289062 C 254.179688 447.6875 201.082031 509.652344 186.402344 585.347656 C 145.882812 536.300781 121.5 473.445312 121.5 405 C 121.5 248.671875 248.671875 121.5 405 121.5 C 561.328125 121.5 688.5 248.671875 688.5 405 C 688.5 473.445312 664.117188 536.300781 623.578125 585.328125 Z M 623.578125 585.328125 " fill-opacity="1" fill-rule="nonzero"/></svg>